<svg width="20" height="22" viewBox="0 0 20 22" fill="none" xmlns="http://www.w3.org/2000/svg">
<path d="M3.21967 11.2803C2.92678 10.9874 2.92678 10.5126 3.21967 10.2197L5.21967 8.21967C5.51257 7.92678 5.98744 7.92678 6.28033 8.21967C6.57323 8.51256 6.57323 8.98744 6.28033 9.28033L5.56066 10L12.75 10C13.1642 10 13.5 10.3358 13.5 10.75C13.5 11.1642 13.1642 11.5 12.75 11.5L5.56066 11.5L6.28033 12.2197C6.57323 12.5126 6.57323 12.9874 6.28033 13.2803C5.98744 13.5732 5.51257 13.5732 5.21967 13.2803L3.21967 11.2803Z" fill="white"/>
<path fill-rule="evenodd" clip-rule="evenodd" d="M11.6953 5.30019e-07H12.8051C14.1727 -1.96761e-05 15.275 -3.5964e-05 16.142 0.116524C17.0421 0.237541 17.8 0.496434 18.4019 1.09835C19.0038 1.70027 19.2627 2.45814 19.3837 3.35825C19.5003 4.22522 19.5002 5.32754 19.5002 6.69513V14.8049C19.5002 16.1725 19.5003 17.2748 19.3837 18.1418C19.2627 19.0419 19.0038 19.7997 18.4019 20.4017C17.8 21.0036 17.0421 21.2625 16.142 21.3835C15.275 21.5 14.1727 21.5 12.8051 21.5H11.6953C10.3278 21.5 9.22544 21.5 8.35847 21.3835C7.45836 21.2625 6.70048 21.0036 6.09857 20.4017C5.69963 20.0027 5.45068 19.5344 5.29305 18.9998C4.34168 18.9986 3.54906 18.9881 2.90689 18.9018C2.14294 18.7991 1.4806 18.5768 0.951905 18.0481C0.423212 17.5194 0.20093 16.8571 0.0982195 16.0931C-4.16338e-05 15.3623 -2.2591e-05 14.4365 7.14773e-07 13.3037V8.19631C-2.2591e-05 7.06349 -4.16338e-05 6.13774 0.0982195 5.40689C0.20093 4.64294 0.423212 3.9806 0.951905 3.4519C1.4806 2.92321 2.14294 2.70093 2.90689 2.59822C3.54906 2.51188 4.34168 2.50142 5.29305 2.50017C5.45068 1.96562 5.69963 1.49729 6.09857 1.09835C6.70048 0.496434 7.45836 0.237541 8.35847 0.116524C9.22543 -3.5964e-05 10.3278 -1.96761e-05 11.6953 5.30019e-07ZM5.00197 15.7542C5.00555 16.3987 5.0162 16.9793 5.05285 17.4991C4.21836 17.4959 3.598 17.4812 3.10676 17.4152C2.50914 17.3348 2.21611 17.191 2.01257 16.9874C1.80903 16.7839 1.66519 16.4909 1.58484 15.8932C1.5016 15.2741 1.5 14.4497 1.5 13.25V8.25C1.5 7.05029 1.5016 6.22595 1.58484 5.60676C1.66519 5.00914 1.80903 4.7161 2.01257 4.51256C2.21611 4.30902 2.50914 4.16519 3.10676 4.08484C3.598 4.0188 4.21836 4.00415 5.05285 4.00091C5.0162 4.52073 5.00555 5.10129 5.00197 5.74583C4.99966 6.16003 5.33357 6.49768 5.74778 6.49999C6.16199 6.5023 6.49964 6.16838 6.50194 5.75418C6.50803 4.66068 6.53643 3.8856 6.64448 3.29735C6.7486 2.73054 6.91577 2.40246 7.15923 2.15901C7.43599 1.88225 7.82456 1.7018 8.55834 1.60315C9.31369 1.50159 10.3148 1.5 11.7502 1.5H12.7502C14.1856 1.5 15.1867 1.50159 15.9421 1.60315C16.6759 1.7018 17.0644 1.88225 17.3412 2.15901C17.618 2.43577 17.7984 2.82435 17.8971 3.55812C17.9986 4.31347 18.0002 5.31459 18.0002 6.75V14.75C18.0002 16.1854 17.9986 17.1865 17.8971 17.9419C17.7984 18.6757 17.618 19.0642 17.3412 19.341C17.0644 19.6178 16.6759 19.7982 15.9421 19.8969C15.1867 19.9984 14.1856 20 12.7502 20H11.7502C10.3148 20 9.31369 19.9984 8.55834 19.8969C7.82456 19.7982 7.43599 19.6178 7.15923 19.341C6.91577 19.0975 6.7486 18.7695 6.64448 18.2027C6.53643 17.6144 6.50803 16.8393 6.50194 15.7458C6.49964 15.3316 6.16199 14.9977 5.74778 15C5.33357 15.0023 4.99966 15.34 5.00197 15.7542Z" fill="white"/>
</svg>
